HIERARCHY
ROOT Hips
{
  OFFSET 0 0 0
  CHANNELS 6 Xposition Yposition Zposition Zrotation Yrotation Xrotation
  JOINT LeftThigh
  {
    OFFSET 8.409438 0 -5.917753
    CHANNELS 3 Zrotation Yrotation Xrotation
    JOINT LeftLeg
    {
      OFFSET 0 0 -42.358652
      CHANNELS 3 Zrotation Yrotation Xrotation
      JOINT LeftFoot
      {
        OFFSET 0 0 -39.357303
        CHANNELS 3 Zrotation Yrotation Xrotation
      }
    }
  }
  JOINT RightThigh
  {
    OFFSET -8.409438 0 -5.917753
    CHANNELS 3 Zrotation Yrotation Xrotation
    JOINT RightLeg
    {
      OFFSET 0 0 -42.358652
      CHANNELS 3 Zrotation Yrotation Xrotation
      JOINT RightFoot
      {
        OFFSET 0 0 -39.357303
        CHANNELS 3 Zrotation Yrotation Xrotation
      }
    }
  }
  JOINT SpineLow
  {
    OFFSET 0 0 4.719101
    CHANNELS 3 Zrotation Yrotation Xrotation
    JOINT SpineMid
    {
      OFFSET 0 0 12.899191
      CHANNELS 3 Zrotation Yrotation Xrotation
      JOINT Chest
      {
        OFFSET 0 0 12.899191
        CHANNELS 3 Zrotation Yrotation Xrotation
        JOINT LeftShoulder
        {
          OFFSET 7.550562 1.41573 9.438202
          CHANNELS 3 Zrotation Yrotation Xrotation
          JOINT LeftArm
          {
            OFFSET 9.155056 0 4.247191
            CHANNELS 3 Zrotation Yrotation Xrotation
            JOINT LeftForearm
            {
              OFFSET 0 0 25.771955
              CHANNELS 3 Zrotation Yrotation Xrotation
              JOINT LeftHand
              {
                OFFSET 0 0 25.197169
                CHANNELS 3 Zrotation Yrotation Xrotation
              }
            }
          }
        }
        JOINT RightShoulder
        {
          OFFSET -7.550562 1.41573 9.438202
          CHANNELS 3 Zrotation Yrotation Xrotation
          JOINT RightArm
          {
            OFFSET -9.155056 0 4.247191
            CHANNELS 3 Zrotation Yrotation Xrotation
            JOINT RightForearm
            {
              OFFSET 0 0 -25.771955
              CHANNELS 3 Zrotation Yrotation Xrotation
              JOINT RightHand
              {
                OFFSET 0 0 -25.197169
                CHANNELS 3 Zrotation Yrotation Xrotation
              }
            }
          }
        }
        JOINT Neck
        {
          OFFSET 0 0 15.101124
          CHANNELS 3 Zrotation Yrotation Xrotation
          JOINT Head
          {
            OFFSET 0 0 11.325843
            CHANNELS 3 Zrotation Yrotation Xrotation
            End Site
            {
              OFFSET 0 0 14.157303
            }
          }
        }
      }
    }
  }
}
MOTION
Frames: 13
Frame Time: 0.0
0.0  101.685394  0.0  11.290313  37.149109  -88.539684  4.032046  -23.312241  25.448992  -5.734556  14.357017  23.792756  -5.791617  5.748096  -4.100506  -39.921564  13.783382  -56.283579  8.491263  6.081519  65.083066  24.959183  6.97156  2.972095  -8.018547  2.6244  -0.329522  -22.02965  6.973714  -1.761607  -22.029651  6.973714  -1.761607  11.070138  27.004488  17.929289  122.541146  47.170563  175.640076  -58.071308  -24.280157  101.469171  71.702775  -2.531734  -8.280669  33.000402  -7.947917  30.191521  103.400092  57.52761  20.057914  -31.231416  6.306395  -98.752769  84.323268  14.828122  72.171204  2.081056  -4.26174  -4.244116  1.530515  -3.210975  -3.167127  
0.0  101.685394  0.0  11.240161  36.34795  -88.613505  5.054515  -23.360583  25.487334  -6.239396  14.446191  23.768752  -6.004831  5.607755  -4.461786  -39.66497  13.700007  -56.631893  8.581519  5.901867  65.148827  25.245686  6.726374  3.093884  -7.86212  2.657871  -0.293498  -21.59946  7.081354  -1.658867  -21.59946  7.081353  -1.658868  10.502691  26.660783  17.576219  122.973841  46.628999  175.704692  -58.351429  -24.203139  102.193421  71.504928  -2.500331  -8.084974  32.560364  -8.016933  29.99224  103.933143  57.391425  20.262627  -31.367783  6.459636  -99.166197  84.172938  14.260638  72.219143  1.878821  -4.414963  -4.395295  1.376694  -3.324966  -3.28128  
0.0  101.685394  0.0  11.191898  35.766097  -88.669713  5.63968  -23.236792  25.676254  -6.204219  14.211703  23.583752  -6.282855  5.541243  -4.629576  -39.626199  13.468345  -56.880375  8.767263  5.822136  65.108503  25.511912  6.511359  3.199805  -7.774192  2.661474  -0.276695  -21.356851  7.099489  -1.605224  -21.356851  7.09949  -1.605224  10.385464  26.555388  17.379908  123.313233  46.254031  175.758957  -58.459286  -24.177358  102.924361  71.460032  -2.397462  -7.932642  32.364207  -8.0448  29.917176  104.624199  57.209252  20.621283  -31.567289  6.608409  -99.618831  84.156933  13.500688  72.185909  1.779116  -4.453511  -4.54197  1.300592  -3.353598  -3.391807  
0.0  101.685394  0.0  11.05068  35.35688  -88.792176  5.611372  -22.774956  25.129855  -6.2945  13.82895  23.419415  -5.669292  5.887971  -4.086951  -39.683784  13.120363  -56.979771  9.013036  5.756777  65.028944  25.659909  6.396403  3.272062  -7.716735  2.648249  -0.268427  -21.197506  7.068327  -1.572416  -21.197506  7.068328  -1.572415  10.145255  26.514187  17.303409  123.920489  46.047018  175.969803  -58.486203  -24.253322  103.642393  71.564314  -2.271427  -7.856465  32.141556  -8.103344  29.891832  104.433881  57.33926  20.977081  -31.32315  6.314699  -100.603949  84.102143  12.475025  71.977668  1.722363  -4.40525  -4.657678  1.257589  -3.317314  -3.479132  
0.0  101.685394  0.0  10.81897  35.071195  -88.970886  5.508695  -22.451096  25.305076  -5.965608  13.55152  23.377809  -5.656772  5.820784  -4.102408  -39.766656  12.722642  -56.943205  9.244547  5.771746  64.898911  25.793896  6.300626  3.305582  -7.707122  2.611653  -0.276329  -21.16942  6.967289  -1.580927  -21.16942  6.967289  -1.580927  10.345151  26.674751  17.420444  124.213409  46.015658  175.979132  -58.466657  -24.468695  104.360393  71.784953  -2.16367  -7.879234  32.072025  -8.135734  30.104371  104.893036  57.174994  21.292841  -31.631399  6.765335  -101.13514  83.92369  11.08291  71.612935  1.771168  -4.298035  -4.712935  1.294643  -3.237436  -3.520601  
0.0  101.685394  0.0  10.534997  34.845137  -89.154171  5.208598  -22.032059  25.316666  -5.492938  13.249686  23.591961  -5.550016  5.781463  -4.144277  -40.141646  12.287753  -56.966862  9.575349  5.551519  64.77283  25.838605  6.291417  3.308346  -7.712961  2.565159  -0.275918  -21.182223  6.841662  -1.565315  -21.182224  6.841663  -1.565315  10.157144  26.826005  17.372059  124.896329  46.084929  176.134192  -58.440404  -24.837745  105.099683  72.099033  -2.07354  -8.042634  31.958537  -8.150339  30.243262  105.136821  57.03457  21.523752  -31.968479  7.390024  -101.684788  83.553002  9.307221  71.104726  1.876105  -4.10958  -4.829213  1.374053  -3.097264  -3.607762  
0.0  101.685394  0.0  10.264629  34.612684  -89.277778  4.827751  -21.551592  25.169531  -4.975211  12.940022  24.008443  -5.490492  5.826225  -4.204275  -39.996197  11.953113  -56.901846  9.677943  5.628829  64.704121  25.892542  6.219131  3.293337  -7.732057  2.519921  -0.295304  -21.233414  6.71268  -1.605067  -21.233415  6.712681  -1.605067  10.264134  27.06115  17.440189  125.162624  46.290168  175.941546  -58.506079  -25.232383  105.930479  72.545251  -1.919187  -8.390012  31.877504  -8.146557  30.512874  105.298855  56.996666  21.675142  -32.357312  8.18448  -102.237672  82.984351  7.146567  70.476273  2.009415  -3.996484  -4.869471  1.474672  -3.01363  -3.637509  
0.0  101.685394  0.0  9.820368  34.169196  -89.646358  4.70174  -21.270851  25.094149  -4.362508  12.644888  24.685373  -5.390233  5.924203  -4.266211  -39.432524  11.723733  -56.60891  9.652231  5.709096  64.679197  25.979533  6.115639  3.27464  -7.715819  2.489125  -0.275797  -21.184978  6.636263  -1.540593  -21.184979  6.636263  -1.540593  9.959455  27.079307  17.420139  125.847188  46.582518  175.941658  -58.625957  -25.654496  106.868133  73.071809  -1.60824  -8.972418  31.64987  -8.225592  30.641932  105.531132  56.955962  21.881089  -32.77361  8.981283  -102.902219  82.240275  4.723771  69.664063  2.167254  -3.922827  -4.937632  1.59319  -2.959893  -3.687902  
0.0  101.685394  0.0  9.571773  33.787986  -89.720381  4.450074  -20.846204  24.901182  -4.039687  12.430186  25.056344  -5.175821  6.069178  -4.331695  -38.817611  11.603518  -56.544914  9.518492  5.833938  64.703929  26.012419  6.021841  3.243964  -7.743241  2.442597  -0.301186  -21.259474  6.50162  -1.596936  -21.259472  6.50162  -1.596936  10.059425  27.260615  17.514124  126.187634  47.053434  175.778946  -58.783788  -26.076913  107.871675  73.636716  -1.067736  -9.74294  31.658041  -8.127126  30.894021  105.725719  57.001588  22.122713  -33.255252  9.71727  -103.662888  81.425984  2.252852  68.692803  2.383891  -3.874992  -4.991504  1.755683  -2.925988  -3.727133  
0.0  101.685394  0.0  9.265981  33.26566  -89.833402  4.473378  -20.634918  24.810518  -3.906905  12.313497  25.224282  -4.608872  6.363093  -4.165798  -37.942727  11.532865  -56.464894  9.331896  5.820576  64.87108  26.006019  5.983571  3.173786  -7.766859  2.400395  -0.314342  -21.322648  6.382676  -1.621081  -21.322649  6.382675  -1.621081  9.675457  27.265662  17.381965  127.047292  47.585845  175.821131  -59.075996  -26.424426  108.948063  74.354445  -0.268535  -10.559972  31.806209  -8.066092  31.01493  105.821677  57.077466  22.340921  -33.640281  10.251654  -104.494671  80.658522  -0.134482  67.570147  2.672286  -3.836139  -5.101622  1.971563  -2.899705  -3.808078  
0.0  101.685394  0.0  8.91255  32.721701  -89.882406  4.735081  -20.667644  24.736847  -3.950808  12.256446  25.138092  -4.365178  6.493268  -4.151841  -36.988599  11.389851  -56.434631  9.068055  6.029308  65.042195  26.012641  5.928132  3.081938  -7.795135  2.328167  -0.334982  -21.397273  6.180087  -1.65601  -21.397271  6.180087  -1.65601  9.673127  27.410217  17.320183  127.281973  48.242261  175.532141  -59.482497  -26.752065  110.098854  75.34995  0.787463  -11.280642  31.946572  -7.906669  31.127447  106.04352  57.19385  22.641643  -33.943154  10.529576  -105.335219  80.075325  -2.461665  66.265962  2.929253  -3.850208  -5.200503  2.163491  -2.912898  -3.880536  
0.0  101.685394  0.0  8.075519  31.22033  -90.815825  5.928342  -21.382083  25.422415  -4.237974  12.255861  24.771477  -4.009537  6.609284  -4.032368  -34.87668  11.26113  -55.618427  8.840472  6.231934  65.26464  26.013046  5.864092  2.956229  -7.674237  2.244517  -0.248706  -21.053293  5.985442  -1.384323  -21.053294  5.985442  -1.384323  9.10374  27.466984  17.052558  128.28936  49.044237  175.591901  -59.865025  -27.033064  111.255633  76.611166  2.143174  -11.822249  32.187821  -7.802946  31.161209  106.18343  57.378625  22.914062  -34.155249  10.575529  -106.17859  79.680023  -4.8551  64.700263  3.225271  -3.835719  -5.318963  2.384836  -2.905202  -3.967595  
0.0  101.685394  0.0  7.63987  30.589055  -90.702926  6.692032  -21.844458  25.357654  -4.581289  12.250621  24.243957  -3.786813  6.728154  -3.813362  -33.834979  10.890707  -55.671471  8.546418  6.604433  65.404393  26.134408  5.775191  2.855343  -7.72168  2.142406  -0.295113  -21.181138  5.693518  -1.481204  -21.181138  5.693517  -1.481204  8.976355  27.647282  16.831044  128.800774  50.052296  175.289554  -60.255329  -27.362583  112.473949  77.883404  3.732045  -12.194147  32.371752  -7.70504  31.165716  106.523703  57.581799  23.268454  -34.374177  10.549131  -106.915005  79.511926  -7.356287  62.827488  3.566586  -3.833984  -5.371033  2.640443  -2.9072  -4.00453  
